<svg width="30" height="26" viewBox="0 0 30 26" fill="none" xmlns="http://www.w3.org/2000/svg">
<path fill-rule="evenodd" clip-rule="evenodd" d="M0 6.37543C0 3.06173 2.68629 0.375427 6 0.375427H17.981C21.2947 0.375427 23.981 3.06172 23.981 6.37543V8.32757L28.8413 5.43475C28.9692 5.35951 29.1009 5.31436 29.2514 5.31436C29.6614 5.31436 29.9962 5.65294 29.9962 6.06674H30V19.0077H29.9962C29.9962 19.4215 29.6614 19.76 29.2514 19.76C29.0971 19.76 28.9692 19.7074 28.8301 19.6321L23.981 16.7464V19.2129C23.981 22.5266 21.2947 25.2129 17.981 25.2129H6C2.68629 25.2129 0 22.5266 0 19.2129V6.37543ZM5.13878 3.80128C4.66577 3.80128 4.28232 4.18473 4.28232 4.65774C4.28232 5.13075 4.66577 5.51421 5.13878 5.51421H12.8469C13.32 5.51421 13.7034 5.13075 13.7034 4.65774C13.7034 4.18473 13.32 3.80128 12.8469 3.80128H5.13878Z" fill="black"/>
</svg>
