<svg width="46" height="46" viewBox="0 0 46 46" fill="none" xmlns="http://www.w3.org/2000/svg">
<rect x="0.833496" y="0.833344" width="44.3333" height="44.3333" fill="#FF0000" fill-opacity="0.01"/>
<path d="M25.8846 23L37.1807 11.7039C37.9767 10.9078 37.9767 9.61528 37.1807 8.81925C36.3847 8.02322 35.0921 8.02322 34.2961 8.81925L22.9999 20.1154L11.7038 8.81925C10.9078 8.02322 9.61522 8.02322 8.81919 8.81925C8.02316 9.61528 8.02316 10.9078 8.81919 11.7039L20.1153 23L8.81919 34.2961C8.02316 35.0922 8.02316 36.3847 8.81919 37.1808C9.61522 37.9768 10.9078 37.9768 11.7038 37.1808L22.9999 25.8846L34.2961 37.1808C35.0921 37.9768 36.3847 37.9768 37.1807 37.1808C37.9767 36.3847 37.9767 35.0922 37.1807 34.2961L25.8846 23Z" fill="black"/>
<mask id="mask0" mask-type="alpha" maskUnits="userSpaceOnUse" x="8" y="8" width="30" height="30">
<path d="M25.8846 23L37.1807 11.7039C37.9767 10.9078 37.9767 9.61528 37.1807 8.81925C36.3847 8.02322 35.0921 8.02322 34.2961 8.81925L22.9999 20.1154L11.7038 8.81925C10.9078 8.02322 9.61522 8.02322 8.81919 8.81925C8.02316 9.61528 8.02316 10.9078 8.81919 11.7039L20.1153 23L8.81919 34.2961C8.02316 35.0922 8.02316 36.3847 8.81919 37.1808C9.61522 37.9768 10.9078 37.9768 11.7038 37.1808L22.9999 25.8846L34.2961 37.1808C35.0921 37.9768 36.3847 37.9768 37.1807 37.1808C37.9767 36.3847 37.9767 35.0922 37.1807 34.2961L25.8846 23Z" fill="white"/>
</mask>
<g mask="url(#mask0)">
<rect x="0.833496" y="0.833344" width="44.3333" height="44.3333" fill="#DAD9E2"/>
<rect x="0.833496" y="0.833344" width="44.3333" height="44.3333" fill="#1F1F1F"/>
</g>
</svg>
