<svg width="46" height="46" viewBox="0 0 46 46" fill="none" xmlns="http://www.w3.org/2000/svg">
<rect x="0.833496" y="0.833344" width="44.3333" height="44.3333" fill="#FF0000" fill-opacity="0.01"/>
<mask id="mask0" mask-type="alpha" maskUnits="userSpaceOnUse" x="5" y="6" width="36" height="34">
<path d="M40.7333 17.7393H40.7155C40.6229 11.9259 36.2093 6.74445 30.7593 6.74445C27.6067 6.74445 24.8284 8.50614 22.9999 11.0928C21.1714 8.50614 18.3932 6.74445 15.2406 6.74445C9.79057 6.74445 5.37694 11.9259 5.28433 17.7393H5.2666C5.2666 17.7759 5.27251 17.8084 5.27251 17.8429C5.27251 17.8693 5.2666 17.8958 5.2666 17.9242C5.2666 18.0868 5.30404 18.2107 5.31192 18.3672C5.7986 33.1821 22.86 39.2556 22.86 39.2556C22.86 39.2556 40.1717 33.1882 40.684 18.3895C40.6939 18.2249 40.7333 18.0949 40.7333 17.9242C40.7333 17.8958 40.7274 17.8693 40.7274 17.8429C40.7274 17.8043 40.7333 17.7738 40.7333 17.7393Z" fill="white"/>
</mask>
<g mask="url(#mask0)">
<rect x="0.833496" y="0.833344" width="44.3333" height="44.3333" fill="#FF0000"/>
</g>
</svg>
