<svg width="8" height="10" viewBox="0 0 8 10" fill="none" xmlns="http://www.w3.org/2000/svg">
<path fill-rule="evenodd" clip-rule="evenodd" d="M7.57157 3.57143C7.57157 5.29926 6.3446 6.74051 4.71443 7.07142V7.85714H6.143V9.28571H4.71443V10H3.28585V9.28571H1.85728V7.85714H3.28585V7.07142C1.65568 6.74051 0.428711 5.29926 0.428711 3.57143C0.428711 1.59898 2.02769 0 4.00014 0C5.97258 0 7.57157 1.59898 7.57157 3.57143ZM4.00014 5.71429C5.18361 5.71429 6.143 4.7549 6.143 3.57143C6.143 2.38796 5.18361 1.42857 4.00014 1.42857C2.81667 1.42857 1.85728 2.38796 1.85728 3.57143C1.85728 4.7549 2.81667 5.71429 4.00014 5.71429Z" fill="white"/>
</svg>
