<svg width="29" height="29" viewBox="0 0 29 29" fill="none" xmlns="http://www.w3.org/2000/svg">
<rect x="0.25" y="0.25" width="28.5" height="28.5" fill="#FF0000" fill-opacity="0.01"/>
<path fill-rule="evenodd" clip-rule="evenodd" d="M14.8795 3.25C10.5151 3.25 6.74086 5.57663 4.8465 9.20916L3.25 6.95881L3.78761 13.3121L9.63054 12.4076L6.88253 11.2379C8.33736 8.33736 11.3887 6.15966 14.8795 6.15966C19.6672 6.15966 23.5903 10.0828 23.5903 14.8705C23.5903 19.6672 19.6672 23.5903 14.8795 23.5903C12.2605 23.5903 9.93385 22.4279 8.33736 20.5408L6.15966 22.4279C8.19569 24.9035 11.3887 26.5 14.8795 26.5C21.271 26.5 26.5 21.271 26.5 14.8705C26.5 8.47902 21.271 3.25 14.8795 3.25Z" fill="white"/>
<mask id="mask0" mask-type="alpha" maskUnits="userSpaceOnUse" x="3" y="3" width="24" height="24">
<path fill-rule="evenodd" clip-rule="evenodd" d="M14.8795 3.25C10.5151 3.25 6.74086 5.57663 4.8465 9.20916L3.25 6.95881L3.78761 13.3121L9.63054 12.4076L6.88253 11.2379C8.33736 8.33736 11.3887 6.15966 14.8795 6.15966C19.6672 6.15966 23.5903 10.0828 23.5903 14.8705C23.5903 19.6672 19.6672 23.5903 14.8795 23.5903C12.2605 23.5903 9.93385 22.4279 8.33736 20.5408L6.15966 22.4279C8.19569 24.9035 11.3887 26.5 14.8795 26.5C21.271 26.5 26.5 21.271 26.5 14.8705C26.5 8.47902 21.271 3.25 14.8795 3.25Z" fill="white"/>
</mask>
<g mask="url(#mask0)">
<rect x="0.25" y="0.25" width="28.5" height="28.5" fill="url(#paint0_linear)"/>
<rect x="0.25" y="0.25" width="28.5" height="28.5" fill="#FEE140"/>
</g>
<defs>
<linearGradient id="paint0_linear" x1="-2.83217" y1="57.6149" x2="49.4998" y2="29.869" gradientUnits="userSpaceOnUse">
<stop stop-color="#FEE140" stop-opacity="0.788355"/>
<stop offset="1" stop-color="#F05522"/>
</linearGradient>
</defs>
</svg>
