<svg width="29" height="29" viewBox="0 0 29 29" fill="none" xmlns="http://www.w3.org/2000/svg">
<rect x="0.25" y="0.25" width="28.5" height="28.5" fill="#FF0000" fill-opacity="0.01"/>
<path d="M25.4061 13.0634C25.8541 12.6082 26.0119 11.9406 25.8189 11.3203C25.6259 10.7 25.1221 10.2569 24.5042 10.1635L19.0989 9.34412C18.9933 9.32834 18.901 9.25915 18.8537 9.1584L16.4369 4.04803C16.1589 3.46295 15.5993 3.10001 14.9742 3.10001C14.3491 3.10001 13.7895 3.46295 13.5139 4.04803L11.0959 9.1584C11.0486 9.25915 10.9563 9.32834 10.8507 9.34412L5.44537 10.1647C4.82751 10.2582 4.32376 10.7012 4.13075 11.3215C3.93775 11.9418 4.09555 12.6094 4.54347 13.0646L8.45454 17.0424C8.53101 17.1201 8.56621 17.233 8.548 17.3435L7.62425 22.9612C7.51865 23.6034 7.76749 24.2407 8.27246 24.6242C8.77742 25.0078 9.43534 25.0576 9.98765 24.7541L14.8225 22.1018C14.9171 22.0496 15.0313 22.0496 15.1259 22.1018L19.9607 24.7541C20.2011 24.884 20.4609 24.9495 20.7206 24.9495C21.0569 24.9495 21.3907 24.8391 21.6772 24.623C22.1821 24.2394 22.431 23.6022 22.3254 22.96L21.4016 17.3423C21.3834 17.2318 21.4186 17.1189 21.4951 17.0412L25.4061 13.0634Z" fill="black"/>
<mask id="mask0" mask-type="alpha" maskUnits="userSpaceOnUse" x="4" y="3" width="22" height="22">
<path d="M25.4061 13.0634C25.8541 12.6082 26.0119 11.9406 25.8189 11.3203C25.6259 10.7 25.1221 10.2569 24.5042 10.1635L19.0989 9.34412C18.9933 9.32834 18.901 9.25915 18.8537 9.1584L16.4369 4.04803C16.1589 3.46295 15.5993 3.10001 14.9742 3.10001C14.3491 3.10001 13.7895 3.46295 13.5139 4.04803L11.0959 9.1584C11.0486 9.25915 10.9563 9.32834 10.8507 9.34412L5.44537 10.1647C4.82751 10.2582 4.32376 10.7012 4.13075 11.3215C3.93775 11.9418 4.09555 12.6094 4.54347 13.0646L8.45454 17.0424C8.53101 17.1201 8.56621 17.233 8.548 17.3435L7.62425 22.9612C7.51865 23.6034 7.76749 24.2407 8.27246 24.6242C8.77742 25.0078 9.43534 25.0576 9.98765 24.7541L14.8225 22.1018C14.9171 22.0496 15.0313 22.0496 15.1259 22.1018L19.9607 24.7541C20.2011 24.884 20.4609 24.9495 20.7206 24.9495C21.0569 24.9495 21.3907 24.8391 21.6772 24.623C22.1821 24.2394 22.431 23.6022 22.3254 22.96L21.4016 17.3423C21.3834 17.2318 21.4186 17.1189 21.4951 17.0412L25.4061 13.0634Z" fill="white"/>
</mask>
<g mask="url(#mask0)">
<rect x="0.25" y="0.25" width="28.5" height="28.5" fill="#00FCC4"/>
</g>
</svg>
