<svg width="30" height="30" viewBox="0 0 30 30" fill="none" xmlns="http://www.w3.org/2000/svg">
<path fill-rule="evenodd" clip-rule="evenodd" d="M8 0C3.58172 0 0 3.58172 0 8V22C0 26.4183 3.58172 30 8 30H22C26.4183 30 30 26.4183 30 22V8C30 3.58172 26.4183 0 22 0H8ZM11.05 8.29091L20.5409 13.9398C20.7659 14.1307 20.9091 14.4102 20.9091 14.7273C20.9091 15.0443 20.7659 15.3273 20.5409 15.5148L11.0602 21.1568C10.9341 21.225 10.8182 21.2727 10.6784 21.2727C10.3068 21.2727 10.0034 20.9659 10.0034 20.5909H10V8.86364H10.0034C10.0034 8.48864 10.3068 8.18182 10.6784 8.18182C10.8148 8.18182 10.9341 8.22273 11.05 8.29091Z" fill="black"/>
</svg>
